<?xml version="1.0" encoding="UTF-8"?>
<svg id="Capa_1" data-name="Capa 1" xmlns="http://www.w3.org/2000/svg" viewBox="0 0 495.69 564.93">
  <defs>
    <style>
      .cls-1 {
        fill: #d6df53;
      }

      .cls-1, .cls-2, .cls-3, .cls-4, .cls-5, .cls-6, .cls-7, .cls-8, .cls-9, .cls-10, .cls-11, .cls-12 {
        stroke-width: 0px;
      }

      .cls-2 {
        fill: #1b2924;
      }

      .cls-3 {
        fill: #e3e682;
      }

      .cls-4 {
        fill: #8bcc30;
      }

      .cls-5 {
        fill: #f3d325;
      }

      .cls-6 {
        fill: #f3de9a;
      }

      .cls-7 {
        fill: #eee498;
      }

      .cls-8 {
        fill: #fcc122;
      }

      .cls-9 {
        fill: #18372a;
      }

      .cls-10 {
        fill: #acd045;
      }

      .cls-11 {
        fill: #fdd873;
      }

      .cls-12 {
        fill: #f1e66d;
      }
    </style>
  </defs>
  <path class="cls-2" d="m254.36,3.39c7.17,14.36,13.77,28.88,19.78,43.57,19.22,47.12,32.56,95.23,36.52,146.13.02.27.35.39.55.2,32.31-32.08,68.94-57.79,109.89-77.14,6.43-2.78,12.28-6.39,19.66-7.63,11-.02,20.26,6.18,22.81,16.9,1.79,7.54-3.12,18.18-7.25,27.21l-6.59,14.34c-15.45,30.76-33.67,59.61-54.68,86.55-.25.33-.17.48.24.45,26.3-1.85,53.22,1.26,77.65,11,6.22,2.7,18.39,8.18,22.1,13.85,2.44,7.85-2.32,10.44-8.58,15.17-12.01,9.09-24.67,17.16-38,24.21-.54.29-1.91.83-4.11,1.62-.35.13-.48.37-.41.73,2.06,9.82-2.2,16.4-8.05,25.38l-27.3,44.96c-13.05,21.42-26.19,42.77-39.42,64.06-1.89,3.04-1.31,5.12-.06,8.17l8.4,32.24c1.79,9.91,2.83,16.38,3.11,19.42,2.09,22.59-11.2,43.4-33.39,48.94-22.45,5.61-44.08-9-49.95-30.78-.1-.37-.44-.63-.82-.63l-97.72-.13c-.33,0-.62.21-.71.52-5.04,16.89-15.73,27.22-32.07,30.99-22.26,5.14-43.16-10.18-48.92-31.22-3.91-14.3-1.19-28.08,8.17-41.35,6.01-7.61,13.74-12.86,23.21-15.76,3.41-.89,5.7-1.34,6.86-1.35,25.84-.21,51.68-.21,77.51.01,27.39.24,54.8-.13,82.2-.03.32,0,.57-.13.74-.4.4-.61.31-1.19-.28-1.76-.17-.16-.39-.25-.61-.25l-168.28-.57c-11.09-.56-17.95-5.83-20.59-15.8-2.11-7.99-6.7-27.86-13.75-59.6-1.95-7.77-3.03-13.16-3.26-16.15-.83-11.09,7.72-16.77,16.16-22.04.23-.15.19-.5-.07-.58-14.69-4.69-28.96-10.2-42.8-16.54-18.81-8.86-36.67-19.13-53.59-30.8l-4.8-3.49c-6.47-4.76-21.3-14.33-23.31-20.69-1.43-4.52-.07-8.19,4.06-11.02,7.87-5.37,17.33-9.83,28.4-13.38,22.5-6.94,44.04-8,67.48-6.94.38.01.46-.13.23-.44l-21.32-28.83-6.67-10.23-16.43-27.79c-8.54-14.84-15.83-30.22-21.87-46.15-1.79-4.72-2.72-8.39-2.81-11.01-.31-9.44,6-17.36,14.88-19.92,4.86-1.4,10.03-.95,15.51,1.34,13.39,5.59,23.61,10.24,30.68,13.93,10.51,5.53,20.5,11.33,29.99,17.4,22.91,14.69,43.84,31.39,62.8,50.11.53.53.83.42.89-.33,2.15-28.25,7.15-56.19,15-83.81,2.07-7.27,4.19-14.53,6.37-21.77,7.29-21.76,15.81-43.1,25.58-64.01,2.67-5.99,8.33-20.34,12.47-21.88,3.61-1.34,6.47-.41,8.57,2.8Zm-42.05,165.25c-1.5,11-2.28,21.87-2.34,32.62l.88,23.98c1.62,18.67,5.89,36.77,12.81,54.3l22.72,57.09-3.6-5.39c-6.11-10.15-10.11-17.09-12-20.84-7.51-14.95-15.26-29.77-23.23-44.44-8.86-17.13-19.34-33.09-31.45-47.86-30.42-35.42-72.51-63.15-115.01-82.57-1.15-.52-2-.69-2.56-.52-.84.27-1.08.8-.72,1.6,10.21,22.88,21.91,44.78,35.11,65.7,11.15,17.67,23.62,34.3,37.43,49.88,15.24,17.19,31.56,31.91,48.96,44.17,16.84,11.86,38.89,26.05,58.13,39.58-.03.13-.06.25-.09.38l-10.58-5.49-42.1-22.55-8.23-4.21-24.98-12.03c-37.2-15.83-76.57-19.13-115.24-8.36-.59.16-.87.83-.59,1.36.69,1.3,2.42,1.99,3.25,2.58,23.9,16.95,49.49,30.7,76.77,41.23l22.09,6.98c12.51,3.17,25.55,5.27,39.11,6.28l7.56.44,51.02-1.26,4.5-.43c.14-.01.26.08.29.22.02.14-.07.27-.2.3l-12.61,3.07c-13.04,2.29-26.11,4.52-39.2,6.69-11.83,1.95-22.79,6.31-32.87,13.07-.48.32-.43.48.15.49,14.52.1,31.49.77,44.68-1.29,13.25-2.09,25.75-6.81,37.49-14.18l7.32-5.02c.25-.17.4-.11.47.19.11.47.07,1.01-.12,1.6l-.63,16.62c-.02.35.25.64.6.65l6.33.26c.35.01.52-.15.52-.5l-.08-19.75c15.72,9.85,32.92,20.38,52.9,21.4l37.82.02c.2,0,.29-.26.12-.38-16.62-11.68-34.35-13.94-58.21-17.51l-26.37-4.48c-.09-.02-.16-.1-.15-.19,0-.1.08-.17.17-.17l4.37-.05c15.79.67,28.98.82,39.57.43,31.62-1.15,65.69-11.32,93.76-24.16l15.73-7.05,22.82-11.68c7.94-4.25,15.81-8.83,23.61-13.74.75-.47.93-1.04.53-1.7-.13-.21-.33-.37-.57-.44-10.17-2.97-20.74-4.87-31.69-5.72-12.03-1.15-24.28-.83-36.75.96l-15.21,2.8c-19.13,4.49-37.02,12.73-54.36,21.95l-58.95,32.36c-.36.19-.51.09-.46-.32.03-.21.14-.36.33-.46,3.65-1.83,7.98-5.87,11.32-8.32,25.15-16.78,49.99-33.46,72.45-53.75,40.61-38.12,71.66-86.46,93.55-137.3.33-.78-.46-1.55-1.23-1.2-34.2,15.86-67.39,37-95.01,62.27-11.75,10.71-22.36,22.48-31.83,35.31-8.12,11.36-15.31,23.31-21.57,35.85-9.77,19.57-19.87,38.95-30.29,58.15l-5.92,10.5c1.19-5,2.67-9.8,4.46-14.39,8.84-22.71,18.53-45.39,24.54-69.03,4.55-19.64,6.33-39.57,5.34-59.8-3.14-50.48-17.62-98.02-37.37-144.5-.51-1.21-1.19-1.31-2.04-.3-1.46,1.74-2.46,5.04-3.18,6.77-14.95,36.16-27,74.33-31.99,113.23Zm142.68,186.82l-10.93,15.79c-.19.27-.5.43-.83.43h-167.27s-12.45.02-12.45.02c-8.19.01-16.52.01-25,.02-4.65,0-7.73,1.07-6.57,6.5,5.51,25.79,10.05,46.4,13.64,61.81.77,3.32,1.79,5.8,3.05,7.44l8.66.23,74.68.02h98.99c.37.01.61.19.71.56l3.78,13.93,8.93,33.37c.2.75-.37,1.48-1.14,1.48l-142.01.09c-10.87.29-21.73.36-32.58.19-6.25-.1-10.52.13-12.79.69-9.74,2.38-17.8,11.78-17.68,21.68.09,7.76,3.33,13.76,9.72,18,19.59,10.01,36.18-10.16,25.83-28.1-.3-.47-.47-.89-.52-1.28-.03-.37.13-.55.5-.55l25.26-.06h124.47c.4-.01.49.15.26.48-6.18,8.91-7.21,18.5.43,26.89,16.25,15.16,40.54-2.89,31.33-22.58l-3.59-5.21c-.25-.36-.2-.84.12-1.14,5.07-4.78,3.29-9.25,1.46-16.31-2.88-11.13-5.93-22.31-9.16-33.54l-1.77-7.56c-.09-.37.06-.58.44-.64,2.78-.41,5.04-2.04,6.78-4.88,13.82-22.55,27.79-45.18,41.9-67.89,8.61-13.79,17.29-27.7,26.04-41.71,1.22-1.94,2.55-5.06-.45-5.98-13.48-.38-26.75-.33-39.81.14-2.83.1-5.32,1.08-6.8,3.32-2.51,3.79-7.72,11.91-15.63,24.35Z"/>
  <path class="cls-7" d="m286.89,193.44l-.28,2.22c-.03.24-.12.26-.25.06l-.88-1.27c-.28-.41-.76-.63-1.25-.57-.93.11-2.68.09-3.78-.26-.38-.13-.73,0-1.06.39-.2.24-.45.32-.76.25-2.61-.6-5.25-.69-7.9-.28-.34.05-.66,0-.95-.2-2.33-1.52-12.73-.44-16.74.08-1.15.15-1.78.92-1.87,2.33-.03.47-.15.5-.36.08l-.79-1.57-.08-18.02v-13.76l.03-44.76c.09-20.35-1.08-40.95-.02-60.95.11-2.17-.16-4.03-.83-5.58-.39-.92-1.72-.83-1.99.13-2.51,9.04-6.06,15.68-9.76,26.26-1.12,3.21-2.34,6.38-3.67,9.5-.88,2.09-1.01,4.9-2.63,7.1-.19.25-.29.54-.3.85-.14,2.68-1.46,4.44-1.85,7.01-.36,2.35-1.69,4.49-2.17,6.73-.24,1.13-.56,2.23-.97,3.32-1.01,2.7-.74,5.31-2.5,7.97-.17.27-.27.56-.28.87-.11,2.07-.49,4.06-1.15,5.97-1.16,3.39-1,6.76-2.63,10.09-.15.3-.22.61-.22.94.01,2.75-.57,5.38-1.73,7.89-.15.32-.24.65-.27,1l-.56,5.52c-1.27,4.64-2.17,9.54-2.68,14.69-.05.45-.53.84-1.45,1.17,4.99-38.9,17.04-77.07,31.99-113.23.72-1.73,1.72-5.03,3.18-6.77.85-1.01,1.53-.91,2.04.3,19.75,46.48,34.23,94.02,37.37,144.5Z"/>
  <path class="cls-12" d="m249.97,118.16c-1.08.6-1.89.55-2.42-.16-.29-.39-.5-.35-.65.11-.21.67-.63,1.09-1.24,1.28-.32.09-.59.26-.8.51-1.89,2.2-3.22,4.22-5.49,6.5-2.61,2.62-3.49,6.03-5.43,8.72-.97,1.33-1.89,2.7-2.77,4.09-.17.26-.4.42-.7.47-.27.05-.48.18-.61.4-1.38,2.24-4.21,4.72-6.15,6.6-.26.25-.44.56-.53.92-.19.68-.75.83-1.7.45-.33-.13-.58-.37-.74-.7-.48-1.02-1.28-1.34-2.4-.97-.29.1-.51.34-.58.64l-1.32,5.76.56-5.52c.03-.35.12-.68.27-1,1.16-2.51,1.74-5.14,1.73-7.89,0-.33.07-.64.22-.94,1.63-3.33,1.47-6.7,2.63-10.09.66-1.91,1.04-3.9,1.15-5.97.01-.31.11-.6.28-.87,1.76-2.66,1.49-5.27,2.5-7.97.41-1.09.73-2.19.97-3.32.48-2.24,1.81-4.38,2.17-6.73.39-2.57,1.71-4.33,1.85-7.01.01-.31.11-.6.3-.85,1.62-2.2,1.75-5.01,2.63-7.1,1.33-3.12,2.55-6.29,3.67-9.5,3.7-10.58,7.25-17.22,9.76-26.26.27-.96,1.6-1.05,1.99-.13.67,1.55.94,3.41.83,5.58-1.06,20,.11,40.6.02,60.95Z"/>
  <path class="cls-1" d="m249.97,118.16l-.03,44.76-1.01,4.26c-.08.35-.27.42-.57.23-.33-.21-.66-.27-1-.19-.81.2-2.58,3.67-3.97,4.61-4.16,2.82-6.94,7.05-10.49,10.47-.77.74-.68,1.67-1.5,2.47-5.49,5.33-11.22,10.39-17.18,15.18-1.21.97-1.79,2.39-1.74,4.28,0,.29-.37.42-.53.17l-1.98-3.14c.06-10.75.84-21.62,2.34-32.62.92-.33,1.4-.72,1.45-1.17.51-5.15,1.41-10.05,2.68-14.69l1.32-5.76c.07-.3.29-.54.58-.64,1.12-.37,1.92-.05,2.4.97.16.33.41.57.74.7.95.38,1.51.23,1.7-.45.09-.36.27-.67.53-.92,1.94-1.88,4.77-4.36,6.15-6.6.13-.22.34-.35.61-.4.3-.05.53-.21.7-.47.88-1.39,1.8-2.76,2.77-4.09,1.94-2.69,2.82-6.1,5.43-8.72,2.27-2.28,3.6-4.3,5.49-6.5.21-.25.48-.42.8-.51.61-.19,1.03-.61,1.24-1.28.15-.46.36-.5.65-.11.53.71,1.34.76,2.42.16Z"/>
  <path class="cls-7" d="m344.85,273.08c-.05-4.3-.53-7.31-1.45-9.04-.83-1.57-1.24-2.9-1.22-3.98,0-.3-.11-.53-.36-.68-.92-.57-1.05-.79-1.3-1.88-.66-2.93-1.44-5.87-2.35-8.84-.13-.43-.62-.63-1.01-.41-.85.47-1.5.29-1.94-.54-.16-.31-.11-.58.14-.83,1.64-1.63,2.07-3.58,1.3-5.85-.11-.31-.33-.49-.66-.54-.09-.01-.18-.03-.27-.04-.58-.07-.68-.32-.3-.77l27.41-32.12c.38-.45.03-1.13-.56-1.09-.64.05-1.02-.38-1.15-1.31-.05-.33-.22-.58-.52-.73l-7.53-3.8c-.34-.17-.7-.27-1.08-.3-.61-.05-.93-.37-.96-.96-.03-.36-.19-.63-.5-.8-1.84-1.07-3.76-3.66-6.02-1.33-.23.23-.39.2-.49-.11l-.15-.44c-.11-.31-.25-.33-.44-.06-.46.63-.89.71-1.28.22,27.62-25.27,60.81-46.41,95.01-62.27.77-.35,1.56.42,1.23,1.2-21.89,50.84-52.94,99.18-93.55,137.3Z"/>
  <path class="cls-7" d="m176.1,218.1c-.32.13-.68.03-1.09-.31-.24-.21-.44-.17-.59.11-.29.53-.66.57-1.11.1-.11-.11-.28-.12-.41-.03-.12.08-.17.25-.1.39l.26.56c.17.36.09.64-.26.83-5.68,3.17-10.25,8.22-13.71,15.15l-11.27-12.99-46.38-52.33c-.27-.31-.7-.41-1.09-.27-1.04.38-1.74,1.15-2.09,2.31-.01.03,0,.04.03.04l.45.06c.18.03.23.12.15.28-1.19,2.45-1.56,5.01-1.1,7.68.73,4.22-2.25,4.44-3.67,7.24-.83,1.62-1.46,3.34-1.89,5.15-.03.13.03.19.16.16.09-.02.18-.06.25-.11.31-.25.44-.1.39.43-.13,1.2.03,2.58.48,4.15.18.65.08,1.3-.3,1.97-.12.21-.27.24-.46.08-.14-.13-.25-.2-.33-.21-.3-.06-.6.11-.71.4-.1.29.01.61.28.76,1.39.79,1.7,1.66.93,2.61-13.2-20.92-24.9-42.82-35.11-65.7-.36-.8-.12-1.33.72-1.6.56-.17,1.41,0,2.56.52,42.5,19.42,84.59,47.15,115.01,82.57Z"/>
  <path class="cls-10" d="m249.94,162.92v13.76l-.41,7.16c-.03.58-.69.9-1.17.57-.61-.42-1.19-.2-1.75.67-2.81,4.39-6.06,7.39-9.58,11.14-.83.89-1.99,2.71-3.28,3.52-.93.58-.99.5-.18-.24.25-.23.54-.55.88-.97.03-.03.02-.06-.01-.1-.01-.02-.03-.04-.04-.06-.03-.07-.07-.09-.12-.04-7.32,6.99-12.95,14.12-21.44,20.05-.26.18-.4.5-.35.82.39,2.37-.16,4.39-1.64,6.04l-.88-23.98,1.98,3.14c.16.25.54.12.53-.17-.05-1.89.53-3.31,1.74-4.28,5.96-4.79,11.69-9.85,17.18-15.18.82-.8.73-1.73,1.5-2.47,3.55-3.42,6.33-7.65,10.49-10.47,1.39-.94,3.16-4.41,3.97-4.61.34-.08.67-.02,1,.19.3.19.49.12.57-.23l1.01-4.26Z"/>
  <path class="cls-11" d="m147.82,221.91c-3.58,3.33-5.61,5.69-6.09,7.07-.76,2.21-1.59,4.39-2.49,6.56-.03.07,0,.12.07.13l.39.05c.25.03.26.11.04.22l-.32.17c-.25.13-.46.32-.63.55l-6.15,8.52c-.14.19-.09.28.14.28h.48c.21,0,.34.22.25.41l-3.16,6.32c-13.81-15.58-26.28-32.21-37.43-49.88.77-.95.46-1.82-.93-2.61-.27-.15-.38-.47-.28-.76.11-.29.41-.46.71-.4.08.01.19.08.33.21.19.16.34.13.46-.08.38-.67.48-1.32.3-1.97-.45-1.57-.61-2.95-.48-4.15.05-.53-.08-.68-.39-.43-.07.05-.16.09-.25.11-.13.03-.19-.03-.16-.16.43-1.81,1.06-3.53,1.89-5.15,1.42-2.8,4.4-3.02,3.67-7.24-.46-2.67-.09-5.23,1.1-7.68.08-.16.03-.25-.15-.28l-.45-.06s-.04-.01-.03-.04c.35-1.16,1.05-1.93,2.09-2.31.39-.14.82-.04,1.09.27l46.38,52.33Z"/>
  <path class="cls-4" d="m249.94,176.68l.08,18.02.14,37.75.07,56.74c-.27.61-.52.86-.73.75-.29-.14-.48-.37-.58-.7-.01-.05-.06-.08-.11-.07-.05,0-.09.05-.09.1v.42c0,.32-.15.42-.45.31-2.74-1.06-5.23-2.52-7.46-4.39-3.86-3.23-9.06-4.28-13.93-4.9-.25-.03-.37.08-.37.33,0,.13-.01.26-.04.39-.08.41-.16.41-.23,0-.34-1.87-1.2-2.5-2.58-1.89-6.92-17.53-11.19-35.63-12.81-54.3,1.48-1.65,2.03-3.67,1.64-6.04-.05-.32.09-.64.35-.82,8.49-5.93,14.12-13.06,21.44-20.05.05-.05.09-.03.12.04.01.02.03.04.04.06.03.04.04.07.01.1-.34.42-.63.74-.88.97-.81.74-.75.82.18.24,1.29-.81,2.45-2.63,3.28-3.52,3.52-3.75,6.77-6.75,9.58-11.14.56-.87,1.14-1.09,1.75-.67.48.33,1.14,0,1.17-.57l.41-7.16Z"/>
  <path class="cls-3" d="m286.89,193.44c.99,20.23-.79,40.16-5.34,59.8-.25.18-.49.11-.74-.22-.21-.27-.28-.58-.23-.92.43-2.76.97-5.49,1.62-8.2.39-1.61.03-3.26.49-4.87.67-2.34.71-3.51.28-5.63-.03-.13-.1-.19-.23-.19h-.32c-.27-.01-.47-.28-.39-.54.33-1.12-.08-1.74-1.21-1.87-.07-.01-.1.03-.1.1v.4c-.01.27-.15.41-.42.41-8.85-.01-17.69-.24-26.52-.69-.93-.05-1.95.62-3.06,2.01-.29.37-.46.32-.51-.15l-.05-.43-.14-37.75.79,1.57c.21.42.33.39.36-.08.09-1.41.72-2.18,1.87-2.33,4.01-.52,14.41-1.6,16.74-.08.29.19.61.25.95.2,2.65-.41,5.29-.32,7.9.28.31.07.56,0,.76-.25.33-.39.68-.52,1.06-.39,1.1.35,2.85.37,3.78.26.49-.06.97.16,1.25.57l.88,1.27c.13.2.22.18.25-.06l.28-2.22Z"/>
  <path class="cls-11" d="m344.85,273.08c-22.46,20.29-47.3,36.97-72.45,53.75-1.61-2.39-4.1-1.94-6-.04-1.81,1.82-2.9,1.9-3.26.25,21.49-27.01,43.42-53.54,65.8-79.61.21-.24.18-.45-.09-.62-6.19-3.96-11.46-5.38-17.91-11.07-.21-.19-.25-.41-.11-.66l.89-1.56c.17-.31.09-.48-.26-.52-.57-.07-.94-.35-1.13-.84,9.47-12.83,20.08-24.6,31.83-35.31.39.49.82.41,1.28-.22.19-.27.33-.25.44.06l.15.44c.1.31.26.34.49.11,2.26-2.33,4.18.26,6.02,1.33.31.17.47.44.5.8.03.59.35.91.96.96.38.03.74.13,1.08.3l7.53,3.8c.3.15.47.4.52.73.13.93.51,1.36,1.15,1.31.59-.04.94.64.56,1.09l-27.41,32.12c-.38.45-.28.7.3.77.09.01.18.03.27.04.33.05.55.23.66.54.77,2.27.34,4.22-1.3,5.85-.25.25-.3.52-.14.83.44.83,1.09,1.01,1.94.54.39-.22.88-.02,1.01.41.91,2.97,1.69,5.91,2.35,8.84.25,1.09.38,1.31,1.3,1.88.25.15.37.38.36.68-.02,1.08.39,2.41,1.22,3.98.92,1.73,1.4,4.74,1.45,9.04Z"/>
  <path class="cls-11" d="m176.1,218.1c12.11,14.77,22.59,30.73,31.45,47.86-.09.38-.1.78-.03,1.2.04.27-.07.44-.34.49-1.15.22-1.4,1.21-2.19,1.81-3.45,2.6-7.4,3.06-7.17,8.51.02.4-.13.72-.45.95-.61.44-.67.97-.19,1.6.13.17.06.26-.14.2-.21-.05-.49-.23-.63-.4l-37.32-45.42c3.46-6.93,8.03-11.98,13.71-15.15.35-.19.43-.47.26-.83l-.26-.56c-.07-.14-.02-.31.1-.39.13-.09.3-.08.41.03.45.47.82.43,1.11-.1.15-.28.35-.32.59-.11.41.34.77.44,1.09.31Z"/>
  <path class="cls-8" d="m147.82,221.91l11.27,12.99,37.32,45.42c.14.17.42.35.63.4.2.06.27-.03.14-.2-.48-.63-.42-1.16.19-1.6.32-.23.47-.55.45-.95-.23-5.45,3.72-5.91,7.17-8.51.79-.6,1.04-1.59,2.19-1.81.27-.05.38-.22.34-.49-.07-.42-.06-.82.03-1.2,7.97,14.67,15.72,29.49,23.23,44.44,1.89,3.75,5.89,10.69,12,20.84.02,4.21-1.76,5.78-5.34,4.7-19.24-13.53-41.29-27.72-58.13-39.58-17.4-12.26-33.72-26.98-48.96-44.17l3.16-6.32c.09-.19-.04-.41-.25-.41h-.48c-.23,0-.28-.09-.14-.28l6.15-8.52c.17-.23.38-.42.63-.55l.32-.17c.22-.11.21-.19-.04-.22l-.39-.05c-.07,0-.1-.06-.07-.13.9-2.17,1.73-4.35,2.49-6.56.48-1.38,2.51-3.74,6.09-7.07Z"/>
  <path class="cls-1" d="m281.55,253.24c-6.01,23.64-15.7,46.32-24.54,69.03-1.79,4.59-3.27,9.39-4.46,14.39-1.27-.19-1.96-.74-2.05-1.67-.34-1.16-.79-2.2-.76-3.42.37-14.11.53-28.24.49-42.38l-.07-56.74.05.43c.05.47.22.52.51.15,1.11-1.39,2.13-2.06,3.06-2.01,8.83.45,17.67.68,26.52.69.27,0,.41-.14.42-.41v-.4c0-.07.03-.11.1-.1,1.13.13,1.54.75,1.21,1.87-.08.26.12.53.39.54h.32c.13,0,.2.06.23.19.43,2.12.39,3.29-.28,5.63-.46,1.61-.1,3.26-.49,4.87-.65,2.71-1.19,5.44-1.62,8.2-.05.34.02.65.23.92.25.33.49.4.74.22Z"/>
  <path class="cls-8" d="m310.33,232.16c.19.49.56.77,1.13.84.35.04.43.21.26.52l-.89,1.56c-.14.25-.1.47.11.66,6.45,5.69,11.72,7.11,17.91,11.07.27.17.3.38.09.62-22.38,26.07-44.31,52.6-65.8,79.61-.09.05-.17.09-.25.14l-2.41-1.37c-.33-.19-.6-.13-.83.18-.4.56-.79.62-1.18.17,10.42-19.2,20.52-38.58,30.29-58.15,6.26-12.54,13.45-24.49,21.57-35.85Z"/>
  <path class="cls-7" d="m151.46,292.04c-.67,1.23-1.24,2.53-1.69,3.9-.99,2.94-.14,6.48-.79,9.81-.07.32.05.41.34.27l.48-.23c.24-.11.34-.04.29.22-.32,1.87-1.14,3.55-2.45,5.04l-15.51-5.14c-9.32-3.19-18.61-6.28-27.86-9.27-2.3-.74-3.6.5-2.9,2.88.03.09-.04.19-.14.19h-.29c-.2,0-.31.24-.18.39,2.23,2.63-.03,4.72,1.9,7.24.19.26.26.55.19.86-.95,4.27-1.32,8.6-1.11,12.99.01.2.1.34.28.42l13.7,6.43c.25.12.32.3.19.55-.06.11-.15.19-.26.26-27.28-10.53-52.87-24.28-76.77-41.23-.83-.59-2.56-1.28-3.25-2.58-.28-.53,0-1.2.59-1.36,38.67-10.77,78.04-7.47,115.24,8.36Z"/>
  <path class="cls-4" d="m426.48,277.86l8.12,21.6-22.82,11.68c-2.18-.41-4.7.48-7.56,2.67-.7.53-1.68-.09-1.49-.95.07-.34-.01-.56-.26-.66-.52-.21-.67-.35-.44-.43l.31-.1c.32-.11.4-.31.24-.6-1.87-3.57-1.53-7.63-2.75-11.45-1.86-5.85-2.89-11.09-5.5-16.29-.53-1.05-1.53-1.72-1.84-3.22-.07-.35-.28-.47-.61-.36-1.21.39-1.92.08-2.15-.93,12.47-1.79,24.72-2.11,36.75-.96Z"/>
  <path class="cls-3" d="m426.48,277.86c10.95.85,21.52,2.75,31.69,5.72.24.07.44.23.57.44.4.66.22,1.23-.53,1.7-7.8,4.91-15.67,9.49-23.61,13.74l-8.12-21.6Z"/>
  <path class="cls-10" d="m389.73,278.82c.23,1.01.94,1.32,2.15.93.33-.11.54.01.61.36.31,1.5,1.31,2.17,1.84,3.22,2.61,5.2,3.64,10.44,5.5,16.29,1.22,3.82.88,7.88,2.75,11.45.16.29.08.49-.24.6l-.31.1c-.23.08-.08.22.44.43.25.1.33.32.26.66-.19.86.79,1.48,1.49.95,2.86-2.19,5.38-3.08,7.56-2.67l-15.73,7.05-12.29,3.7c-.36.11-.6-.02-.71-.37-.33-1.02-.28-1.94.17-2.76.18-.33.23-.67.14-1.03-1.25-5.05-2.3-10.13-3.15-15.25-.35-2.09.44-4.33-1.55-6.53-.2-.22-.34-.48-.41-.76l-1.14-4.3s-.02-.04-.04-.05c-.25-.14-.37-.1-.34.12.13,1.01.01,1.04-.34.07-1.11-3.1-1.74-6.24-1.87-9.41l15.21-2.8Z"/>
  <path class="cls-10" d="m250.23,289.19c.04,14.14-.12,28.27-.49,42.38-.03,1.22.42,2.26.76,3.42l-4.12,1.64-22.72-57.09c1.38-.61,2.24.02,2.58,1.89.07.41.15.41.23,0,.03-.13.04-.26.04-.39,0-.25.12-.36.37-.33,4.87.62,10.07,1.67,13.93,4.9,2.23,1.87,4.72,3.33,7.46,4.39.3.11.45.01.45-.31v-.42s.04-.09.09-.1c.05-.01.1.02.11.07.1.33.29.56.58.7.21.11.46-.14.73-.75Z"/>
  <path class="cls-1" d="m374.52,281.62c.13,3.17.76,6.31,1.87,9.41.35.97.47.94.34-.07-.03-.22.09-.26.34-.12.02.01.03.03.04.05l1.14,4.3c.07.28.21.54.41.76,1.99,2.2,1.2,4.44,1.55,6.53.85,5.12,1.9,10.2,3.15,15.25.09.36.04.7-.14,1.03-.45.82-.5,1.74-.17,2.76.11.35.35.48.71.37l12.29-3.7c-28.07,12.84-62.14,23.01-93.76,24.16-10.59.39-23.78.24-39.57-.43l.54-.62c.11-.13.11-.26-.02-.39l-.48-.48c-.13-.13-.1-.34.06-.43.13-.07.26-.07.4-.02,22.15-7.24,44.43-13.91,66.85-20,.29-.07.41-.26.36-.55-.8-4.95-3.45-7.76-6.23-11.94-1.03-1.55-2.37-2.85-4.04-3.92,17.34-9.22,35.23-17.46,54.36-21.95Z"/>
  <path class="cls-3" d="m151.46,292.04l24.98,12.03c-1.45,2.74-2.21,5.63-2.26,8.66-.05,2.71-.63,4.33-1.34,6.75l-16.82-5.54-8.38-2.89c1.31-1.49,2.13-3.17,2.45-5.04.05-.26-.05-.33-.29-.22l-.48.23c-.29.14-.41.05-.34-.27.65-3.33-.2-6.87.79-9.81.45-1.37,1.02-2.67,1.69-3.9Z"/>
  <path class="cls-3" d="m132.13,305.91c-2.73.23-3.89,1.53-3.48,3.91.05.33,0,1.46-.16,3.39-.48,5.83.41,11.08-1.98,17.09-.19.49.06,1.03.56,1.19,3.01.93,6.2,1.86,9.57,2.78,1.17.32,1.53.84,1.1,1.56l-22.09-6.98c.11-.07.2-.15.26-.26.13-.25.06-.43-.19-.55l-13.7-6.43c-.18-.08-.27-.22-.28-.42-.21-4.39.16-8.72,1.11-12.99.07-.31,0-.6-.19-.86-1.93-2.52.33-4.61-1.9-7.24-.13-.15-.02-.39.18-.39h.29c.1,0,.17-.1.14-.19-.7-2.38.6-3.62,2.9-2.88,9.25,2.99,18.54,6.08,27.86,9.27Z"/>
  <path class="cls-12" d="m320.16,303.57c1.67,1.07,3.01,2.37,4.04,3.92,2.78,4.18,5.43,6.99,6.23,11.94.05.29-.07.48-.36.55-22.42,6.09-44.7,12.76-66.85,20l-3.5-2.37c-.27-.19-.45-.44-.54-.75-.09-.35-.32-.56-.7-.63-.31-.06-.4-.23-.29-.52,1.23-3.25,2.8-6.1,4.7-8.53.08-.05.16-.09.25-.14.36,1.65,1.45,1.57,3.26-.25,1.9-1.9,4.39-2.35,6,.04-3.34,2.45-7.67,6.49-11.32,8.32-.19.1-.3.25-.33.46-.05.41.1.51.46.32l58.95-32.36Z"/>
  <path class="cls-10" d="m176.44,304.07l8.23,4.21-.33,13.64c-.01.44-.23.63-.67.57-3.62-.49-7.23-1.5-10.83-3.01.71-2.42,1.29-4.04,1.34-6.75.05-3.03.81-5.92,2.26-8.66Z"/>
  <path class="cls-10" d="m132.13,305.91l15.51,5.14,8.38,2.89c-5.01,3.45-4.41,10.95-6.08,16.24-.67,2.12-.26,4.1-1.22,6.33-.17.38-.05.63.36.74,7.35,2,15.33,2.66,22.89,3.62.63.08,1.47.08,2.5,0,1.83-.15,2.62.26,2.38,1.25-13.56-1.01-26.6-3.11-39.11-6.28.43-.72.07-1.24-1.1-1.56-3.37-.92-6.56-1.85-9.57-2.78-.5-.16-.75-.7-.56-1.19,2.39-6.01,1.5-11.26,1.98-17.09.16-1.93.21-3.06.16-3.39-.41-2.38.75-3.68,3.48-3.91Z"/>
  <path class="cls-4" d="m184.67,308.28l42.1,22.55c-.61.8-.63,1.32-.05,1.57,1.07.45,1.72.81,1.96,1.08.99,1.09.75,1.53-.72,1.32-10.79-1.54-21.3-4.14-31.55-7.8-.34-.12-.65-.06-.92.17-4.63,4.08-8.32,9.21-11.08,15.38l-7.56-.44c.24-.99-.55-1.4-2.38-1.25-1.03.09-1.87.09-2.5,0-7.56-.96-15.54-1.62-22.89-3.62-.41-.11-.53-.36-.36-.74.96-2.23.55-4.21,1.22-6.33,1.67-5.29,1.07-12.79,6.08-16.24l16.82,5.54c3.6,1.51,7.21,2.52,10.83,3.01.44.06.66-.13.67-.57l.33-13.64Z"/>
  <path class="cls-5" d="m262.89,327.18c-1.9,2.43-3.47,5.28-4.7,8.53-.11.29-.02.46.29.52.38.07.61.28.7.63.09.31.27.56.54.75l3.5,2.37c-.14-.05-.27-.05-.4.02-.16.09-.19.3-.06.43l.48.48c.13.13.13.26.02.39l-.54.62-4.37.05c-.09,0-.17.07-.17.17-.01.09.06.17.15.19l26.37,4.48c.04.13.04.27.01.42-.03.15-.13.23-.28.23-.09,0-.19,0-.28.01-.08,0-.14.04-.18.11l-1.97,3.68c-.17.31-.09.52.24.64,8.19,2.92,16.54,5.32,25.04,7.19.34.07.54.28.6.63.4,2.42-.57,4.07-2.91,4.96-19.98-1.02-37.18-11.55-52.9-21.4l-4.86.89c-.33.06-.49.26-.49.59v.61c0,.33-.16.54-.47.63-.27.08-.57.08-.92,0,.19-.59.23-1.13.12-1.6-.07-.3-.22-.36-.47-.19l-7.32,5.02c-1.1-.45-2.1-.3-2.99.47-.25.21-.53.3-.85.29l-3.57-.2c-.35-.02-.59-.2-.7-.53l-.85-2.44c-.03-.06-.03-.14-.01-.21l.41-1.56c.11-.41-.29-.76-.68-.61-.53.2-.87.2-1.01.01l12.61-3.07c.13-.03.22-.16.2-.3-.03-.14-.15-.23-.29-.22l-4.5.43c-.43-1.07.31-2.2,2.23-3.37.29-.18.44-.44.44-.79,0-.54-.25-.81-.75-.81.03-.13.06-.25.09-.38,3.58,1.08,5.36-.49,5.34-4.7l3.6,5.39,4.12-1.64c.09.93.78,1.48,2.05,1.67l5.92-10.5c.39.45.78.39,1.18-.17.23-.31.5-.37.83-.18l2.41,1.37Z"/>
  <path class="cls-10" d="m226.77,330.83l10.58,5.49c.5,0,.75.27.75.81,0,.35-.15.61-.44.79-1.92,1.17-2.66,2.3-2.23,3.37l-51.02,1.26c2.76-6.17,6.45-11.3,11.08-15.38.27-.23.58-.29.92-.17,10.25,3.66,20.76,6.26,31.55,7.8,1.47.21,1.71-.23.72-1.32-.24-.27-.89-.63-1.96-1.08-.58-.25-.56-.77.05-1.57Z"/>
  <path class="cls-6" d="m417.23,327.65c-1.72,1.05-3.83,1.38-6.33.99-.28-.04-.55.15-.61.43l-.17.86c-.08.38-.31.62-.69.72-1.7.43-1.37,1.57-1.93,2.73-1.3,2.7-3.03,4.29-5.19,4.78l-22.43-.15c-.67-.01-1.29.32-1.66.87l-13.43,19.82c-.49-.67-1.51-.98-3.08-.94-2.37.05-4.61-.71-6.72-2.3,7.91-12.44,13.12-20.56,15.63-24.35,1.48-2.24,3.97-3.22,6.8-3.32,13.06-.47,26.33-.52,39.81-.14Z"/>
  <path class="cls-8" d="m417.23,327.65c3,.92,1.67,4.04.45,5.98-8.75,14.01-17.43,27.92-26.04,41.71-2.36,1.58-4.37,3.82-6.04,6.72-.18.31-.58.41-.89.22-3.71-2.31-7.15-2.15-10.31.46-10.51-.72-20.83-.79-30.96-.21-.37.02-.56.21-.55.58l.07,21.84c-.23.35-.54.57-.91.65-3.57.79-7.12,1.71-10.63,2.78-3.37,1.01-6.65.14-10.24.65-.41.06-.68.28-.82.66l-1.18,3.25c-.36,1-1.3,1.68-2.37,1.71l-12.61.34c-.31,0-.57.12-.78.33l-1.84,1.8-8.44.54-29.41-.14-4.48.4c-.34.03-.65-.05-.93-.24-.81-.55-1.65-.6-2.52-.17-.31.15-.65.21-1,.16l-1.38-.21h-29.03c-.38,0-.61.19-.68.56-.04.22,0,.42.09.6.13.23.2.47.19.74l-.24,17.52c-.01.38.18.57.56.57h13.83c-1.39,5.48-3.83,6.47-6.17,10.27l-74.68-.02c-2.16-3.79-2.61-7.19-1.35-10.21l16.78-.04c.33,0,.5-.17.5-.5v-18.97c0-.47-.38-.84-.85-.83l-18.34.37.81-3.7c.07-.33.08-.65.03-.98-.28-1.85-.07-3.73.63-5.65h17.15c.35-.01.53-.18.53-.53l-.05-24.25c-.47-1.47-.47-3.09,0-4.88.06-.22.19-.41.37-.55,1.52-1.16,2.67-2.6,3.45-4.31.1-.23.03-.38-.21-.46-.33-.11-.59-.28-.78-.52h167.27c.33-.01.64-.17.83-.44l10.93-15.79c2.11,1.59,4.35,2.35,6.72,2.3,1.57-.04,2.59.27,3.08.94l-8.12,12.46c-.24.37-.14.55.3.55h23.47c.31,0,.54-.13.7-.38l21.17-33.17c2.16-.49,3.89-2.08,5.19-4.78.56-1.16.23-2.3,1.93-2.73.38-.1.61-.34.69-.72l.17-.86c.06-.28.33-.47.61-.43,2.5.39,4.61.06,6.33-.99Zm-203.72,55.03c0-.22-.17-.39-.39-.39l-28.76-.05c-.21,0-.39.18-.39.39l-.04,23.92c0,.22.17.39.39.39l28.76.05c.21,0,.39-.18.39-.39l.04-23.92Zm39.74.11c0-.24-.19-.43-.43-.43l-28.38-.1c-.23,0-.43.19-.43.43l-.08,23.8c0,.24.19.43.43.43l28.38.1c.23,0,.43-.19.43-.43l.08-23.8Zm39.74-.05c0-.26-.2-.46-.46-.46l-28.32-.05c-.25,0-.46.2-.46.46l-.04,23.8c0,.26.2.46.46.46l28.32.05c.25,0,.46-.2.46-.46l.04-23.8Zm39.11-.25c0-.14-.12-.26-.26-.26l-28.16.1c-.15,0-.26.12-.26.26l.08,24.3c0,.14.12.26.26.26l28.16-.1c.15,0,.26-.12.26-.26l-.08-24.3Zm-118.56,35.5c0-.31-.25-.57-.57-.57l-28.64.05c-.31,0-.57.26-.57.57l.03,18.86c0,.31.25.57.57.57l28.64-.05c.31,0,.57-.26.57-.57l-.03-18.86Z"/>
  <path class="cls-2" d="m402.31,338.16l-21.17,33.17c-.16.25-.39.38-.7.38h-23.47c-.44,0-.54-.18-.3-.55l8.12-12.46,13.43-19.82c.37-.55.99-.88,1.66-.87l22.43.15Z"/>
  <path class="cls-1" d="m252.07,343.28l.08,19.75c0,.35-.17.51-.52.5l-6.33-.26c-.35-.01-.62-.3-.6-.65l.63-16.62c.35.08.65.08.92,0,.31-.09.47-.3.47-.63v-.61c0-.33.16-.53.49-.59l4.86-.89Z"/>
  <path class="cls-12" d="m227.41,344.45c.14.19.48.19,1.01-.01.39-.15.79.2.68.61l-.41,1.56c-.02.07-.02.15.01.21l.85,2.44c.11.33.35.51.7.53l3.57.2c.32,0,.6-.08.85-.29.89-.77,1.89-.92,2.99-.47-11.74,7.37-24.24,12.09-37.49,14.18-13.19,2.06-30.16,1.39-44.68,1.29-.58-.01-.63-.17-.15-.49,10.08-6.76,21.04-11.12,32.87-13.07,13.09-2.17,26.16-4.4,39.2-6.69Z"/>
  <path class="cls-12" d="m284.7,346.81c23.86,3.57,41.59,5.83,58.21,17.51.17.12.08.38-.12.38l-37.82-.02c2.34-.89,3.31-2.54,2.91-4.96-.06-.35-.26-.56-.6-.63-8.5-1.87-16.85-4.27-25.04-7.19-.33-.12-.41-.33-.24-.64l1.97-3.68c.04-.07.1-.11.18-.11.09-.01.19-.01.28-.01.15,0,.25-.08.28-.23.03-.15.03-.29-.01-.42Z"/>
  <path class="cls-6" d="m163.51,371.7c-2.29,2.75-5.18,4.81-8.67,6.18-.32.13-.57.34-.74.63l-.77,1.3c-.17.29-.08.42.25.39.19-.02.36.01.51.09.25.12.23.2-.04.25-.93.16-2.12.21-3.57.16-1.35-.05-2.03.47-2.04,1.54l-4.17.33c-.45.03-.62.27-.53.71l4.95,23.17c.1.47.39.71.87.71l5.94.03c-.7,1.92-.91,3.8-.63,5.65.05.33.04.65-.03.98l-.81,3.7c-.95-.17-1.78-.17-2.49,0-.36.09-.5.31-.42.67l1.35,6.28c-2.01,3.12-3.45,6.62-4.34,10.49-.57,2.48-.3,4.68-.11,7.23.03.32.13.62.3.89.81,1.26.92,2.72.31,4.39-1.26-1.64-2.28-4.12-3.05-7.44-3.59-15.41-8.13-36.02-13.64-61.81-1.16-5.43,1.92-6.5,6.57-6.5,8.48-.01,16.81-.01,25-.02Z"/>
  <path class="cls-11" d="m163.51,371.7h12.45c.19.23.45.4.78.51.24.08.31.23.21.46-.78,1.71-1.93,3.15-3.45,4.31-.18.14-.31.33-.37.55-.47,1.79-.47,3.41,0,4.88l-24.69-.17c.01-1.07.69-1.59,2.04-1.54,1.45.05,2.64,0,3.57-.16.27-.05.29-.13.04-.25-.15-.08-.32-.11-.51-.09-.33.03-.42-.1-.25-.39l.77-1.3c.17-.29.42-.5.74-.63,3.49-1.37,6.38-3.43,8.67-6.18Z"/>
  <path class="cls-6" d="m391.64,375.34c-14.11,22.71-28.08,45.34-41.9,67.89-1.74,2.84-4,4.47-6.78,4.88-.38.06-.53.27-.44.64l1.77,7.56c-2.51,2.68-5.45,4.65-8.84,5.9l-3.78-13.93c-.1-.37-.34-.55-.71-.55h-98.99c2.34-3.81,4.78-4.8,6.17-10.27l14.54-.02c.35,0,.52-.18.53-.53l.07-7.45c0-1.1.55-1.89,1.66-2.37.33-.14.67-.16,1.02-.07l3.99,1.06c.23.06.28.19.15.38-.1.15-.08.26.05.33,1.39.73,2.57.34,3.54-1.18l.02,9.08c0,.43.34.77.77.77h27.76c.43,0,.64-.21.64-.63l.26-19.17,8.44-.54c1.23-.23,1.81-.06,1.75.49l-.04,19.19c0,.44.22.66.66.66h27.65c.39,0,.7-.32.69-.7l-.32-18.52c-.01-.49-.26-.74-.75-.74l-14.56-.06c.46-2.41,2.22-3.37,5.27-2.88,3.52.57,6.64.49,9.37-.23.26-.07.54-.02.75.14.85.64,1.48.46,1.9-.55.16-.37.44-.6.84-.67,3.95-.69,6.61-2.76,7.98-6.22l16.32-.16c.31,0,.59-.17.75-.43l14.56-23.7c3.16-2.61,6.6-2.77,10.31-.46.31.19.71.09.89-.22,1.67-2.9,3.68-5.14,6.04-6.72Zm-48.83,56.81c0,.77,1.01,1.05,1.4.39l8.35-13.67c.31-.51-.05-1.16-.64-1.16h-8.48c-.43,0-.77.34-.76.77l.13,13.67Z"/>
  <path class="cls-2" d="m148.44,382.24l24.69.17.05,24.25c0,.35-.18.52-.53.52h-17.15s-5.94-.02-5.94-.02c-.48,0-.77-.24-.87-.71l-4.95-23.17c-.09-.44.08-.68.53-.71l4.17-.33Z"/>
  <rect class="cls-9" x="186.37" y="379.84" width="24.7" height="29.54" rx=".39" ry=".39" transform="translate(-196.24 592.64) rotate(-89.9)"/>
  <rect class="cls-9" x="226.26" y="380.01" width="24.66" height="29.24" rx=".43" ry=".43" transform="translate(-156.87 631.84) rotate(-89.8)"/>
  <rect class="cls-9" x="265.99" y="379.99" width="24.72" height="29.24" rx=".46" ry=".46" transform="translate(-116.75 672.27) rotate(-89.9)"/>
  <rect class="cls-9" x="303.46" y="382.28" width="28.68" height="24.82" rx=".26" ry=".26" transform="translate(-1.38 1.11) rotate(-.2)"/>
  <path class="cls-2" d="m374.4,382.74l-14.56,23.7c-.16.26-.44.42-.75.43l-16.32.16.19-2.08-.07-21.84c-.01-.37.18-.56.55-.58,10.13-.58,20.45-.51,30.96.21Z"/>
  <path class="cls-11" d="m342.96,404.95l-.19,2.08c-1.37,3.46-4.03,5.53-7.98,6.22-.4.07-.68.3-.84.67-.42,1.01-1.05,1.19-1.9.55-.21-.16-.49-.21-.75-.14-2.73.72-5.85.8-9.37.23-3.05-.49-4.81.47-5.27,2.88l-13.33.17c.06-.55-.52-.72-1.75-.49l1.84-1.8c.21-.21.47-.32.78-.33l12.61-.34c1.07-.03,2.01-.71,2.37-1.71l1.18-3.25c.14-.38.41-.6.82-.66,3.59-.51,6.87.36,10.24-.65,3.51-1.07,7.06-1.99,10.63-2.78.37-.08.68-.3.91-.65Z"/>
  <path class="cls-2" d="m155.94,437.49l-3.47-13.02-1.35-6.28c-.08-.36.06-.58.42-.67.71-.17,1.54-.17,2.49,0l18.34-.37c.47-.01.85.36.85.83v18.97c0,.33-.17.5-.5.5l-16.78.04Z"/>
  <path class="cls-11" d="m263.73,417.52l-.04,10.09c-.97,1.52-2.15,1.91-3.54,1.18-.13-.07-.15-.18-.05-.33.13-.19.08-.32-.15-.38l-3.99-1.06c-.35-.09-.69-.07-1.02.07-1.11.48-1.66,1.27-1.66,2.37l.14-12,1.38.21c.35.05.69-.01,1-.16.87-.43,1.71-.38,2.52.17.28.19.59.27.93.24l4.48-.4Z"/>
  <rect class="cls-2" x="183.77" y="417.45" width="29.78" height="20" rx=".57" ry=".57" transform="translate(-.75 .35) rotate(-.1)"/>
  <path class="cls-2" d="m253.42,417.46l-.14,12-.07,7.45c-.01.35-.18.53-.53.53l-14.54.02h-13.83c-.38-.01-.57-.2-.56-.58l.24-17.52c.01-.27-.06-.51-.19-.74-.1-.18-.13-.38-.09-.6.07-.37.3-.56.68-.56h29.03Z"/>
  <path class="cls-2" d="m293.14,417.66l-.26,19.17c0,.42-.21.63-.64.63h-27.76c-.43,0-.77-.34-.77-.77l-.02-9.08.04-10.09,29.41.14Z"/>
  <path class="cls-2" d="m316.66,417.44l14.56.06c.49,0,.74.25.75.74l.32,18.52c.01.38-.3.7-.69.7h-27.65c-.44,0-.66-.22-.66-.66l.04-19.19,13.33-.17Z"/>
  <path class="cls-2" d="m342.81,432.15l-.13-13.67c-.01-.43.33-.77.76-.77h8.48c.59,0,.95.65.64,1.16l-8.35,13.67c-.39.66-1.4.38-1.4-.39Z"/>
  <path class="cls-11" d="m152.47,424.47l3.47,13.02c-1.26,3.02-.81,6.42,1.35,10.21l-8.66-.23c.61-1.67.5-3.13-.31-4.39-.17-.27-.27-.57-.3-.89-.19-2.55-.46-4.75.11-7.23.89-3.87,2.33-7.37,4.34-10.49Z"/>
  <path class="cls-8" d="m344.29,456.31c3.23,11.23,6.28,22.41,9.16,33.54,1.83,7.06,3.61,11.53-1.46,16.31-.32.3-.37.78-.12,1.14l3.59,5.21c-1.25.68-2.28,1.64-3.09,2.87-.18.29-.42.5-.72.65-2.68,1.33-5.19,2.02-7.32,4.34-1.9,2.07-4.01,3.9-6.33,5.47-3.91,2.66-6.38,6.04-10.9,8.1-.27.12-.45.32-.54.61l-.22.68c-.14.45-.37.5-.7.17-.46-.47-.96-.57-1.51-.31-7.64-8.39-6.61-17.98-.43-26.89.23-.33.14-.49-.26-.49h-124.47s-.42-.99-.42-.99c-.15-.34-.48-.56-.85-.56l-14.67.15c-.35.01-.69-.05-1.02-.18l-1.47-.55c-.32-.12-.56-.33-.71-.62-.65-1.25-.6-2.34.15-3.26,4.61-5.64,19.33-.85,21.25-4.55l142.01-.09c.77,0,1.34-.73,1.14-1.48l-8.93-33.37c3.39-1.25,6.33-3.22,8.84-5.9Z"/>
  <path class="cls-11" d="m201.23,497.15c-1.92,3.7-16.64-1.09-21.25,4.55-.75.92-.8,2.01-.15,3.26.15.29.39.5.71.62l1.47.55c.33.13.67.19,1.02.18l14.67-.15c.37,0,.7.22.85.56l.42,1-25.26.06c-.37,0-.53.18-.5.55.05.39.22.81.52,1.28-2.24.53-4.03,1.67-5.37,3.4-1.55,2-3.22,3.08-4.66,4.93-1.75,2.24-2.79,3.55-3.14,3.92-4.64,4.93-8.86,10.22-12.66,15.85-6.39-4.24-9.63-10.24-9.72-18-.12-9.9,7.94-19.3,17.68-21.68,2.27-.56,6.54-.79,12.79-.69,10.85.17,21.71.1,32.58-.19Z"/>
  <path class="cls-8" d="m173.73,509.61c10.35,17.94-6.24,38.11-25.83,28.1,3.8-5.63,8.02-10.92,12.66-15.85.35-.37,1.39-1.68,3.14-3.92,1.44-1.85,3.11-2.93,4.66-4.93,1.34-1.73,3.13-2.87,5.37-3.4Z"/>
  <path class="cls-11" d="m355.46,512.51c9.21,19.69-15.08,37.74-31.33,22.58.55-.26,1.05-.16,1.51.31.33.33.56.28.7-.17l.22-.68c.09-.29.27-.49.54-.61,4.52-2.06,6.99-5.44,10.9-8.1,2.32-1.57,4.43-3.4,6.33-5.47,2.13-2.32,4.64-3.01,7.32-4.34.3-.15.54-.36.72-.65.81-1.23,1.84-2.19,3.09-2.87Z"/>
</svg>