<?xml version="1.0" encoding="UTF-8" standalone="no"?>
<!DOCTYPE svg PUBLIC "-//W3C//DTD SVG 1.1//EN" "http://www.w3.org/Graphics/SVG/1.1/DTD/svg11.dtd">
<svg xmlns="http://www.w3.org/2000/svg" version="1.1" viewBox="0.00 0.00 732.00 240.00">
<path fill="#f2f2f2" d="
  M 212.32 0.00
  L 258.56 0.00
  C 267.54 2.53 265.50 13.21 255.98 13.23
  Q 234.99 13.28 214.00 13.33
  C 204.43 13.36 196.76 15.08 192.75 24.52
  Q 188.55 34.39 186.44 45.80
  Q 176.39 100.20 166.19 154.65
  Q 166.09 155.16 166.55 155.40
  C 178.19 161.47 183.41 173.85 178.78 186.16
  C 174.63 197.21 164.71 201.71 153.25 201.71
  Q 91.25 201.75 29.25 201.68
  C 19.57 201.67 18.76 188.50 30.32 188.50
  Q 92.91 188.50 155.50 188.50
  C 168.35 188.50 171.97 171.02 159.78 167.03
  Q 157.39 166.24 151.13 166.25
  Q 90.39 166.27 29.66 166.24
  C 25.38 166.23 21.44 164.76 20.59 160.44
  Q 10.29 107.67 0.00 54.96
  L 0.00 52.46
  C 2.03 43.77 9.41 43.51 17.31 43.48
  Q 95.20 43.22 173.08 43.23
  Q 173.61 43.23 173.71 42.72
  C 177.30 24.72 182.36 4.69 203.51 1.05
  Q 207.85 0.31 212.32 0.00
  Z
  M 105.57 135.46
  Q 123.25 136.39 137.17 125.74
  A 0.97 0.97 0.0 0 0 137.54 124.85
  Q 137.39 123.68 136.19 123.67
  Q 122.79 123.56 109.57 125.67
  A 0.21 0.21 0.0 0 1 109.42 125.29
  Q 129.40 112.67 133.28 89.01
  Q 133.59 87.13 132.59 86.37
  A 0.76 0.75 -46.6 0 0 131.63 86.40
  C 120.89 95.86 108.65 104.69 100.30 115.95
  A 0.31 0.31 0.0 0 1 99.74 115.70
  Q 106.44 84.38 94.07 54.99
  A 1.26 1.26 0.0 0 0 91.75 54.99
  Q 81.15 80.09 84.83 107.16
  Q 85.42 111.53 86.07 115.90
  Q 86.22 116.91 85.62 116.08
  C 77.12 104.38 65.13 96.12 54.69 86.76
  A 1.37 1.37 0.0 0 0 52.42 87.98
  Q 55.98 112.41 76.72 125.50
  A 0.11 0.11 0.0 0 1 76.64 125.71
  Q 63.47 123.58 50.06 123.70
  Q 49.08 123.71 48.60 124.10
  A 1.00 1.00 0.0 0 0 48.61 125.67
  C 58.32 133.20 68.08 135.49 80.21 135.53
  Q 81.22 135.54 80.32 136.00
  Q 72.63 139.92 66.19 145.68
  A 1.18 1.18 0.0 0 0 67.02 147.74
  C 77.77 147.36 83.66 143.08 90.87 135.75
  Q 91.31 135.31 91.31 135.94
  L 91.33 151.12
  Q 91.33 151.92 92.12 151.88
  L 93.98 151.78
  Q 94.52 151.75 94.51 151.21
  L 94.47 135.69
  A 0.24 0.23 26.0 0 1 94.89 135.55
  Q 103.71 146.68 117.99 147.97
  Q 119.97 148.15 119.88 146.43
  A 1.28 1.27 -70.2 0 0 119.46 145.53
  Q 113.09 139.81 105.44 135.96
  Q 104.33 135.40 105.57 135.46
  Z"
/>
<path fill="#f2f2f2" d="
  M 416.10 52.46
  C 394.07 49.89 393.10 93.24 415.77 90.52
  C 422.66 89.70 425.14 85.02 427.59 79.32
  C 430.11 73.47 438.14 77.54 435.71 84.83
  Q 431.54 97.33 417.56 99.02
  C 394.87 101.78 383.71 80.60 389.91 61.19
  C 396.26 41.28 426.11 36.49 435.45 56.27
  C 438.51 62.73 431.45 68.63 426.98 61.46
  C 424.14 56.91 421.50 53.09 416.10 52.46
  Z"
/>
<path fill="#f2f2f2" d="
  M 477.48 85.50
  L 456.83 85.50
  Q 456.32 85.50 456.13 85.97
  L 451.22 97.96
  A 0.97 0.94 -89.6 0 1 450.73 98.46
  Q 446.68 100.27 444.15 98.04
  C 441.37 95.58 442.53 92.50 443.70 89.48
  Q 451.14 70.36 458.74 51.31
  C 462.95 40.75 471.36 41.23 475.54 51.45
  Q 483.86 71.83 492.00 92.28
  C 493.77 96.72 488.16 101.22 484.28 98.45
  C 481.52 96.48 479.39 89.31 478.23 86.02
  A 0.80 0.79 -9.9 0 0 477.48 85.50
  Z
  M 466.70 55.95
  L 459.18 76.98
  Q 458.99 77.50 459.65 77.50
  L 474.15 77.50
  A 0.69 0.69 0.0 0 0 474.80 76.57
  L 467.26 55.95
  Q 466.97 55.18 466.70 55.95
  Z"
/>
<path fill="#f2f2f2" d="
  M 555.63 59.17
  C 561.93 41.69 588.02 38.36 599.79 51.97
  C 609.19 62.83 608.33 85.65 596.22 94.43
  C 588.33 100.16 576.71 100.67 567.80 96.93
  C 553.56 90.96 550.96 72.14 555.63 59.17
  Z
  M 570.36 55.67
  C 561.00 64.02 562.53 88.36 576.99 90.45
  C 595.45 93.11 600.39 66.85 589.94 56.43
  C 584.93 51.43 575.60 51.01 570.36 55.67
  Z"
/>
<path fill="#f2f2f2" d="
  M 297.75 89.73
  Q 310.60 89.78 323.44 89.77
  C 328.78 89.77 329.81 98.19 322.41 98.37
  Q 307.74 98.72 293.07 98.36
  C 289.35 98.27 286.32 96.95 286.30 92.94
  Q 286.12 59.15 286.29 50.07
  C 286.36 46.73 288.79 44.89 292.12 44.76
  Q 306.87 44.16 321.62 44.68
  C 328.66 44.93 328.36 52.95 322.25 52.96
  Q 310.00 52.99 297.75 53.01
  Q 297.25 53.01 297.25 53.51
  L 297.25 65.52
  Q 297.24 66.18 297.90 66.19
  Q 313.04 66.41 318.25 66.24
  C 326.87 65.97 326.78 74.61 319.00 74.55
  Q 308.38 74.47 297.76 74.50
  Q 297.25 74.51 297.25 75.01
  L 297.25 89.23
  Q 297.25 89.73 297.75 89.73
  Z"
/>
<path fill="#f2f2f2" d="
  M 361.44 81.74
  C 357.74 76.41 354.02 74.33 347.67 75.74
  Q 347.22 75.83 347.23 76.29
  Q 347.32 88.70 347.20 93.24
  C 346.99 101.53 336.48 101.58 336.36 92.56
  Q 336.07 71.82 336.38 51.08
  C 336.43 48.03 337.85 44.98 340.99 44.73
  Q 347.73 44.19 359.34 44.60
  C 369.96 44.96 378.92 46.32 379.96 58.21
  C 380.76 67.34 375.35 71.70 367.28 73.88
  Q 366.74 74.02 367.17 74.37
  Q 375.45 81.03 379.67 90.70
  C 381.26 94.34 382.03 98.35 376.95 99.27
  C 374.13 99.78 371.68 98.04 370.20 95.50
  Q 366.09 88.45 361.44 81.74
  Z
  M 347.20 53.15
  L 347.30 67.27
  A 0.28 0.28 0.0 0 0 347.58 67.54
  L 360.39 67.45
  A 8.67 6.51 -0.4 0 0 369.02 60.88
  L 369.00 59.22
  A 8.67 6.51 -0.4 0 0 360.29 52.77
  L 347.48 52.86
  A 0.28 0.28 0.0 0 0 347.20 53.15
  Z"
/>
<path fill="#f2f2f2" d="
  M 500.21 50.67
  A 6.13 6.13 0.0 0 1 506.33 44.53
  L 523.22 44.50
  A 23.34 22.92 89.9 0 1 546.18 67.80
  L 546.20 75.10
  A 23.34 22.92 89.9 0 1 523.32 98.48
  L 506.43 98.51
  A 6.13 6.13 0.0 0 1 500.29 92.39
  L 500.21 50.67
  Z
  M 511.25 53.78
  L 511.25 89.28
  A 0.53 0.53 0.0 0 0 511.78 89.81
  L 521.70 89.81
  A 14.78 13.47 -90.0 0 0 535.17 75.03
  L 535.17 68.03
  A 14.78 13.47 90.0 0 0 521.70 53.25
  L 511.78 53.25
  A 0.53 0.53 0.0 0 0 511.25 53.78
  Z"
/>
<path fill="#f2f2f2" d="
  M 634.23 50.69
  A 6.18 6.18 0.0 0 1 640.40 44.50
  L 657.04 44.47
  A 23.38 23.12 89.9 0 1 680.20 67.81
  L 680.22 75.09
  A 23.38 23.12 89.9 0 1 657.14 98.51
  L 640.50 98.54
  A 6.18 6.18 0.0 0 1 634.31 92.37
  L 634.23 50.69
  Z
  M 645.22 53.81
  L 645.28 89.29
  A 0.54 0.54 0.0 0 0 645.82 89.83
  L 655.79 89.81
  A 14.69 13.43 89.9 0 0 669.20 75.10
  L 669.18 67.92
  A 14.69 13.43 89.9 0 0 655.73 53.25
  L 645.76 53.27
  A 0.54 0.54 0.0 0 0 645.22 53.81
  Z"
/>
<path fill="#f2f2f2" d="
  M 701.29 66.23
  Q 711.53 66.28 721.76 66.26
  C 725.37 66.25 729.31 66.87 728.23 71.50
  Q 727.51 74.60 723.50 74.58
  Q 712.33 74.53 701.38 74.47
  A 0.63 0.63 0.0 0 0 700.75 75.10
  L 700.75 89.20
  Q 700.75 89.71 701.25 89.71
  Q 713.81 89.82 726.23 89.76
  C 732.93 89.72 733.39 98.19 726.25 98.36
  Q 711.47 98.72 696.70 98.35
  C 693.45 98.27 690.05 96.95 690.04 93.43
  Q 689.96 71.97 690.08 50.50
  C 690.11 46.72 692.18 44.93 695.97 44.76
  Q 714.72 43.94 727.18 44.76
  C 731.87 45.07 732.21 52.92 724.70 52.97
  Q 712.94 53.04 701.29 52.99
  A 0.56 0.55 -89.5 0 0 700.73 53.55
  L 700.80 65.74
  Q 700.80 66.23 701.29 66.23
  Z"
/>
<path fill="#f2f2f2" d="
  M 264.98 57.68
  A 0.21 0.21 0.0 0 0 264.56 57.63
  Q 260.06 76.17 255.19 94.69
  C 253.91 99.58 247.55 100.84 244.53 97.26
  Q 243.19 95.68 242.00 91.06
  Q 237.74 74.49 233.70 58.10
  A 0.30 0.30 0.0 0 0 233.11 58.18
  Q 233.46 76.88 233.02 94.75
  C 232.87 100.85 223.32 101.44 223.15 92.73
  Q 222.76 71.90 223.16 51.06
  C 223.30 43.99 228.02 44.65 233.76 44.72
  C 238.02 44.77 239.71 45.68 240.70 49.81
  Q 242.59 57.65 248.88 80.27
  Q 249.07 80.93 249.25 80.27
  Q 255.85 56.85 257.34 50.34
  C 258.37 45.88 259.94 44.73 264.61 44.74
  C 270.53 44.76 274.98 43.84 274.99 51.62
  Q 275.03 73.15 274.97 94.68
  C 274.96 100.72 265.02 101.63 265.02 92.38
  Q 265.03 74.98 264.98 57.68
  Z"
/>
<path fill="#f2f2f2" d="
  M 241.54 172.45
  C 245.64 180.62 265.43 179.48 266.28 169.19
  C 267.53 154.00 225.77 162.95 224.53 136.18
  C 223.30 109.57 268.36 106.08 278.89 126.34
  C 281.33 131.03 281.30 137.01 276.48 139.92
  Q 272.45 142.35 268.85 139.99
  C 262.73 135.97 264.07 127.34 254.17 126.88
  C 242.13 126.33 233.73 136.84 250.07 141.16
  C 262.34 144.41 280.71 147.10 283.30 162.68
  C 288.83 195.88 235.29 201.42 224.49 175.16
  C 222.46 170.21 222.16 164.17 227.53 161.58
  C 235.70 157.63 238.82 167.04 241.54 172.45
  Z"
/>
<rect fill="#f2f2f2" x="446.54" y="113.57" width="17.66" height="77.88" rx="8.61"/>
<path fill="#f2f2f2" d="
  M 495.58 175.26
  Q 509.19 175.18 522.78 175.39
  C 535.41 175.59 535.54 190.19 523.63 190.22
  Q 505.57 190.28 487.50 190.25
  C 478.08 190.24 477.53 184.18 477.51 176.15
  Q 477.44 138.07 477.53 123.00
  C 477.60 110.36 495.00 109.58 494.99 124.50
  Q 494.97 149.60 495.02 174.71
  Q 495.02 175.27 495.58 175.26
  Z"
/>
<path fill="#f2f2f2" d="
  M 557.09 175.30
  Q 571.45 175.11 585.80 175.49
  C 593.45 175.70 597.09 185.09 590.34 189.04
  Q 588.32 190.22 583.80 190.23
  Q 565.91 190.28 548.00 190.23
  C 540.53 190.21 539.03 184.79 539.02 178.17
  Q 538.98 150.33 539.01 122.50
  C 539.02 113.17 551.41 109.85 555.40 118.26
  Q 556.49 120.54 556.48 125.56
  Q 556.47 150.14 556.52 174.73
  Q 556.52 175.30 557.09 175.30
  Z"
/>
<path fill="#f2f2f2" d="
  M 643.73 173.00
  L 617.22 173.00
  Q 616.59 173.00 616.36 173.60
  Q 612.71 183.42 610.95 187.18
  C 607.48 194.63 596.59 191.84 595.61 184.32
  Q 595.28 181.75 596.98 177.36
  Q 607.33 150.62 617.98 123.99
  C 619.97 119.02 621.87 115.17 627.44 113.88
  C 637.06 111.64 640.40 118.09 643.74 126.26
  Q 653.45 150.06 662.99 173.91
  Q 665.38 179.91 665.51 180.58
  C 667.09 188.59 659.86 194.00 652.55 190.21
  C 649.53 188.65 645.71 177.05 644.39 173.46
  Q 644.22 173.00 643.73 173.00
  Z
  M 630.05 135.27
  L 621.80 158.30
  Q 621.55 159.00 622.29 159.00
  L 638.44 159.00
  Q 639.14 159.00 638.90 158.34
  L 630.44 135.27
  Q 630.24 134.75 630.05 135.27
  Z"
/>
<path fill="#f2f2f2" d="
  M 732.00 165.78
  L 732.00 167.80
  C 730.07 198.46 678.18 199.89 671.62 171.45
  C 669.87 163.89 677.99 157.23 683.99 162.51
  C 687.35 165.47 687.94 171.28 691.43 174.45
  C 696.37 178.92 704.51 178.78 710.07 175.51
  C 716.37 171.81 715.97 164.51 709.17 161.31
  C 700.27 157.12 684.29 157.56 676.40 146.96
  C 671.05 139.78 671.55 129.17 677.32 122.45
  C 688.36 109.59 716.75 110.24 726.49 124.98
  C 733.61 135.76 721.32 148.27 713.71 136.13
  C 709.03 128.66 706.96 125.81 697.31 127.13
  C 686.03 128.66 687.42 138.59 697.50 141.02
  C 712.07 144.55 730.68 147.46 732.00 165.78
  Z"
/>
<path fill="#f2f2f2" d="
  M 311.50 175.73
  Q 328.01 175.79 344.48 175.75
  C 354.76 175.72 355.74 190.20 343.17 190.23
  Q 311.36 190.31 302.75 190.23
  C 295.23 190.16 293.53 185.23 293.52 178.41
  Q 293.48 151.58 293.51 124.76
  C 293.52 115.99 298.66 114.79 306.43 114.77
  Q 325.56 114.71 344.68 114.78
  C 353.21 114.82 354.20 129.03 341.96 129.01
  Q 326.73 128.98 311.50 129.01
  Q 311.00 129.01 311.00 129.51
  L 311.00 143.48
  A 0.49 0.49 0.0 0 0 311.49 143.97
  Q 326.55 144.07 341.48 143.99
  C 348.99 143.95 350.89 154.76 343.95 157.28
  Q 342.07 157.96 336.85 157.97
  Q 324.19 158.01 311.51 158.00
  Q 311.00 158.00 311.00 158.51
  L 311.00 175.23
  Q 311.00 175.73 311.50 175.73
  Z"
/>
<path fill="#f2f2f2" d="
  M 378.34 148.01
  Q 377.00 142.17 377.00 148.16
  Q 377.00 164.67 376.99 182.74
  C 376.98 194.43 360.68 194.90 360.60 181.80
  Q 360.39 149.55 360.61 125.26
  C 360.67 119.19 362.50 115.61 368.74 114.97
  C 373.91 114.45 384.48 113.40 386.33 119.98
  Q 391.65 138.93 396.69 158.63
  Q 397.12 160.30 397.55 158.63
  Q 402.30 140.37 407.54 121.31
  C 409.73 113.35 417.61 114.58 424.22 114.84
  C 433.07 115.19 433.72 120.39 433.73 128.17
  Q 433.78 154.58 433.80 181.00
  Q 433.80 183.66 432.97 186.10
  C 430.44 193.58 419.78 193.22 417.71 185.75
  Q 417.29 184.23 417.28 180.58
  Q 417.21 162.67 417.26 144.78
  A 0.23 0.23 0.0 0 0 416.80 144.72
  Q 412.65 162.10 408.05 179.38
  C 407.02 183.26 406.63 186.58 403.44 189.27
  C 397.65 194.15 389.38 191.02 387.41 183.82
  Q 382.12 164.55 378.34 148.01
  Z"
/>
<path fill="#f2f2f2" d="
  M 600.35 213.79
  C 605.43 200.81 623.51 198.03 631.95 208.80
  C 634.88 212.54 633.79 219.25 627.94 217.95
  C 624.57 217.19 624.04 213.33 621.04 211.86
  C 606.99 204.96 605.43 235.86 620.27 230.95
  C 624.63 229.50 625.26 222.78 630.05 223.50
  C 634.24 224.14 634.88 228.51 633.08 231.84
  C 628.62 240.06 616.75 241.43 609.24 238.49
  C 599.93 234.83 596.92 222.57 600.35 213.79
  Z"
/>
<path fill="#f2f2f2" d="
  M 657.88 240.00
  L 654.73 240.00
  C 629.08 237.31 633.78 197.10 661.07 202.96
  C 681.01 207.24 679.02 237.94 657.88 240.00
  Z
  M 656.3431 231.6999
  A 10.56 7.83 90.2 0 0 664.2100 221.1673
  A 10.56 7.83 90.2 0 0 656.4169 210.5801
  A 10.56 7.83 90.2 0 0 648.5500 221.1127
  A 10.56 7.83 90.2 0 0 656.3431 231.6999
  Z"
/>
<path fill="#f2f2f2" d="
  M 726.97 240.00
  L 725.20 240.00
  Q 720.56 238.51 720.69 234.25
  Q 721.02 223.89 720.39 213.98
  A 2.87 2.87 0.0 0 0 717.74 211.30
  Q 711.87 210.85 711.39 217.19
  Q 710.79 225.33 710.99 233.49
  Q 711.13 238.70 706.44 240.00
  L 704.71 240.00
  Q 700.53 238.99 700.29 235.00
  Q 700.00 230.11 699.87 214.94
  Q 699.83 211.04 696.00 211.15
  C 692.12 211.27 691.06 213.83 690.72 217.42
  Q 690.02 224.89 690.22 232.43
  C 690.32 236.29 689.57 239.04 685.67 240.00
  L 683.98 240.00
  C 680.56 239.06 679.60 236.85 679.47 233.33
  Q 678.83 216.01 679.54 206.51
  C 679.90 201.57 687.34 200.93 689.33 205.82
  Q 689.53 206.32 689.97 205.99
  Q 699.81 198.41 708.95 206.54
  Q 709.35 206.89 709.75 206.54
  Q 718.29 198.86 728.23 205.26
  C 733.23 208.48 731.76 226.36 731.64 233.24
  Q 731.55 238.83 726.97 240.00
  Z"
/>
<circle fill="#f2f2f2" cx="54.51" cy="220.74" r="14.07"/>
<circle fill="#f2f2f2" cx="137.28" cy="220.74" r="14.07"/>
<path fill="#f2f2f2" d="
  M 587.75 240.00
  L 585.94 240.00
  C 574.25 236.20 585.95 222.47 591.40 231.15
  Q 594.99 236.87 587.75 240.00
  Z"
/>
</svg>
